<svg width="118" height="105" viewBox="0 0 118 105" fill="none" xmlns="http://www.w3.org/2000/svg">
<path d="M37.8779 68.856L37.1579 68.568V50.28H38.7899V67.704C40.0699 68.152 41.4619 68.376 42.9659 68.376C45.1419 68.376 47.3659 67.896 49.6379 66.936C52.6459 65.624 54.9499 63.656 56.5499 61.032C58.1819 58.408 58.9979 55.24 58.9979 51.528C58.9979 48.104 58.1659 45.128 56.5019 42.6C54.8379 40.072 52.4379 38.12 49.3019 36.744C49.1099 36.648 48.7739 36.52 48.2939 36.36C47.8139 36.2 47.3819 36.056 46.9979 35.928C45.3659 35.48 43.7659 35.256 42.1979 35.256C41.1099 35.256 39.8939 35.384 38.5499 35.64C38.1979 35.704 37.7819 35.8 37.3019 35.928C36.8539 36.024 36.4379 36.152 36.0539 36.312L35.5739 36.456L35.0939 36.648V39.912V47.544V56.76V64.44V67.656C31.5739 66.664 28.7259 64.712 26.5499 61.8C24.4059 58.856 23.3339 55.464 23.3339 51.624C23.3339 51.208 23.3339 50.84 23.3339 50.52C23.3339 50.2 23.3979 49.672 23.5259 48.936C24.1659 44.392 26.1499 40.76 29.4779 38.04C32.8379 35.288 37.0619 33.912 42.1499 33.912C47.6219 33.912 52.1339 35.592 55.6859 38.952C59.2379 42.312 61.0139 46.488 61.0139 51.48C61.0139 52.376 60.9499 53.304 60.8219 54.264C60.6939 55.224 60.4859 56.184 60.1979 57.144C59.0459 61.048 56.8539 64.12 53.6219 66.36C50.3899 68.6 46.6139 69.72 42.2939 69.72C41.3659 69.72 40.6939 69.672 40.2779 69.576C39.8939 69.512 39.0939 69.272 37.8779 68.856ZM73.7276 69H64.4156V34.44H76.3676C81.9036 34.44 86.3036 35.992 89.5676 39.096C92.8636 42.168 94.5116 46.232 94.5116 51.288C94.5116 55.352 93.5196 58.824 91.5356 61.704C89.5516 64.584 86.7196 66.664 83.0396 67.944C82.2076 68.264 81.2316 68.52 80.1116 68.712C79.0236 68.904 78.1116 69 77.3756 69H75.7916V48.648H77.0396V67.704H77.9036C79.4716 67.704 81.1996 67.352 83.0876 66.648C88.5916 64.504 91.8716 60.568 92.9276 54.84C93.1516 53.624 93.2636 52.36 93.2636 51.048C93.2636 46.44 91.6956 42.744 88.5596 39.96C85.4556 37.144 81.1996 35.736 75.7916 35.736H73.7276V69Z" fill="black"/>
<path d="M49.4989 9.11942C55.2814 5.38105 62.7186 5.38105 68.5011 9.11942L100.353 29.7115C107.213 34.1464 110.092 42.7371 107.29 50.4102L96.1291 80.9758C93.6079 87.8802 87.041 92.4734 79.6907 92.4734H38.3093C30.959 92.4734 24.3921 87.8802 21.8709 80.9758L10.71 50.4102C7.90817 42.7371 10.7874 34.1464 17.6472 29.7115L49.4989 9.11942Z" stroke="#130327" stroke-width="5"/>
</svg>
