<svg width="45" height="30" viewBox="0 0 45 30" fill="none" xmlns="http://www.w3.org/2000/svg">
<path d="M45 4.28572V6.96428C45 9.32479 34.9219 11.25 22.5 11.25C10.0781 11.25 0 9.32479 0 6.96428V4.28572C0 1.92521 10.0781 0 22.5 0C34.9219 0 45 1.92521 45 4.28572ZM45 10.3125V16.3393C45 18.6998 34.9219 20.625 22.5 20.625C10.0781 20.625 0 18.6998 0 16.3393V10.3125C4.83398 12.2545 13.6816 13.1585 22.5 13.1585C31.3184 13.1585 40.1659 12.2545 45 10.3125ZM45 19.6875V25.7143C45 28.0748 34.9219 30 22.5 30C10.0781 30 0 28.0748 0 25.7143V19.6875C4.83398 21.6295 13.6816 22.5335 22.5 22.5335C31.3184 22.5335 40.1659 21.6295 45 19.6875Z" fill="white"/>
</svg>
