<svg class="w-6 h-6" viewBox="0 0 42 41" fill="none" xmlns="http://www.w3.org/2000/svg" class="text-gray-white">
<g clip-path="url(#clip0_2_560)">
<path fill-rule="evenodd" clip-rule="evenodd" d="M0.380249 20.5958C0.380249 30.4838 7.80656 38.706 17.5192 40.3734V26.0088H12.3775V20.4848H17.5192V16.0645C17.5192 11.0924 20.8322 8.33119 25.518 8.33119C27.0022 8.33119 28.603 8.55162 30.0872 8.77206V13.8552H27.4598C24.9455 13.8552 24.3748 15.0701 24.3748 16.6181V20.4848H29.8592L28.9457 26.0088H24.3748V40.3734C34.0874 38.706 41.5137 30.4854 41.5137 20.5958C41.5137 9.59577 32.2587 0.596191 20.947 0.596191C9.63528 0.596191 0.380249 9.59577 0.380249 20.5958Z" fill="#130327"/>
</g>
<defs>
<clipPath id="clip0_2_560">
<rect width="41.1335" height="39.7772" fill="white" transform="translate(0.380249 0.596191)"/>
</clipPath>
</defs>
</svg>
