<svg width="42" height="30" viewBox="0 0 42 30" fill="none" xmlns="http://www.w3.org/2000/svg">
<path d="M40.7275 21.4775L33.6 18.7499V30H40.95C41.5301 30 42 29.5805 42 29.0625V23.2007C42 22.8339 41.8794 22.475 41.6532 22.1687C41.4271 21.8624 41.1052 21.6221 40.7275 21.4775ZM0 23.2007V29.0625C0 29.5805 0.469875 30 1.05 30H8.4V18.7499L1.27247 21.4775C0.894801 21.6221 0.572939 21.8624 0.346756 22.1687C0.120573 22.475 8.68879e-06 22.8339 0 23.2007ZM30.4802 14.4538L27.3 12.7499V6.01336C27.3 5.5159 27.0788 5.03953 26.6844 4.68738L21.7422 0.27466C21.3321 -0.0915532 20.6673 -0.0915532 20.2578 0.27466L15.3156 4.68738C14.9218 5.03894 14.7 5.5159 14.7 6.01336V12.7499L11.5198 14.4538C11.2088 14.6204 10.9514 14.856 10.7727 15.1378C10.5939 15.4195 10.5 15.7378 10.5 16.0617V30H16.8V24.375C16.8 22.3037 18.6808 20.625 21 20.625C23.3192 20.625 25.2 22.3037 25.2 24.375V30H31.5V16.0617C31.5 15.4031 31.1128 14.7925 30.4802 14.4538Z" fill="white"/>
</svg>
