<svg width="42" height="41" viewBox="0 0 42 41" fill="none" xmlns="http://www.w3.org/2000/svg">
<g clip-path="url(#clip0_2_550)">
<path fill-rule="evenodd" clip-rule="evenodd" d="M21.0477 3.91633C11.5819 3.91633 3.90875 11.3364 3.90875 20.4901C3.90875 29.6439 11.5819 37.064 21.0477 37.064C30.5135 37.064 38.1867 29.6439 38.1867 20.4901C38.1867 11.3364 30.5135 3.91633 21.0477 3.91633ZM0.480957 20.4901C0.480957 9.50585 9.68886 0.601562 21.0477 0.601562C32.4065 0.601562 41.6144 9.50585 41.6144 20.4901C41.6144 31.4744 32.4065 40.3787 21.0477 40.3787C9.68886 40.3787 0.480957 31.4744 0.480957 20.4901Z" fill="#130327"/>
<path fill-rule="evenodd" clip-rule="evenodd" d="M16.9197 38.2832C16.7544 38.076 16.7544 36.233 16.9197 32.7533C15.1441 32.813 14.0233 32.6937 13.5545 32.3962C12.8518 31.9487 12.1491 30.5731 11.5261 29.6027C10.9023 28.6323 9.51828 28.479 8.95955 28.2618C8.40082 28.0447 8.26029 27.1613 10.4995 27.8293C12.7387 28.498 12.8475 30.3195 13.5545 30.7446C14.2606 31.1705 15.9497 30.9849 16.7158 30.6435C17.481 30.3021 17.4245 29.0325 17.5607 28.5295C17.7338 28.0596 17.1254 27.9552 17.1117 27.9519C16.3644 27.9519 12.4388 27.1257 11.3599 23.4496C10.2818 19.7727 11.6709 17.3695 12.4122 16.3361C12.9058 15.6483 12.8621 14.1799 12.2811 11.9333C14.3917 11.6723 16.0208 12.3145 17.1683 13.8608C17.17 13.8691 18.6722 12.9965 21.0477 12.9965C23.4231 12.9965 24.2655 13.7075 24.9159 13.8608C25.5663 14.0142 26.0865 11.1543 30.103 11.9333C29.2641 13.5269 28.5622 15.5182 29.0978 16.3361C29.6343 17.1549 31.7372 19.757 30.4449 23.4496C29.5837 25.9108 27.8912 27.4116 25.365 27.9519C25.0753 28.0406 24.9305 28.1848 24.9305 28.3837C24.9305 28.682 25.3221 28.7151 25.886 30.1131C26.2622 31.0446 26.2887 33.7063 25.9674 38.0976C25.1533 38.2981 24.5192 38.4324 24.065 38.502C23.262 38.6238 22.3905 38.6926 21.5335 38.7183C20.6766 38.7448 20.3784 38.7423 19.1941 38.6354C18.4286 38.5679 17.6687 38.4503 16.9197 38.2832Z" fill="#130327"/>
</g>
<defs>
<clipPath id="clip0_2_550">
<rect width="41.1335" height="39.7772" fill="white" transform="translate(0.480957 0.601562)"/>
</clipPath>
</defs>
</svg>
