<svg width="25" height="20" viewBox="0 0 44 40" fill="none" xmlns="http://www.w3.org/2000/svg">
<path fill-rule="evenodd" clip-rule="evenodd" d="M22 3.33333C11.8745 3.33333 3.66667 10.795 3.66667 20C3.66667 29.205 11.8745 36.6667 22 36.6667C32.1255 36.6667 40.3333 29.205 40.3333 20C40.3333 10.795 32.1255 3.33333 22 3.33333ZM0 20C0 8.95417 9.84958 0 22 0C34.1504 0 44 8.95417 44 20C44 31.0458 34.1504 40 22 40C9.84958 40 0 31.0458 0 20Z" fill="white"/>
<path fill-rule="evenodd" clip-rule="evenodd" d="M17.5844 37.8926C17.4075 37.6843 17.4075 35.831 17.5844 32.3318C15.6851 32.3918 14.4861 32.2718 13.9846 31.9726C13.233 31.5226 12.4813 30.1393 11.8149 29.1635C11.1476 28.1876 9.66714 28.0335 9.06947 27.8151C8.4718 27.5968 8.32147 26.7085 10.7167 27.3801C13.112 28.0526 13.2284 29.8843 13.9846 30.3118C14.74 30.7401 16.5467 30.5535 17.3662 30.2101C18.1848 29.8668 18.1243 28.5901 18.2701 28.0843C18.4552 27.6118 17.8044 27.5068 17.7897 27.5035C16.9904 27.5035 12.7911 26.6726 11.6371 22.976C10.4839 19.2785 11.9698 16.8618 12.7627 15.8226C13.2907 15.131 13.244 13.6543 12.6225 11.3951C14.8802 11.1326 16.6228 11.7785 17.8502 13.3335C17.8521 13.3418 19.459 12.4643 22 12.4643C24.541 12.4643 25.4421 13.1793 26.1378 13.3335C26.8336 13.4876 27.39 10.6118 31.6864 11.3951C30.789 12.9976 30.0382 15.0001 30.6111 15.8226C31.185 16.646 33.4345 19.2626 32.0521 22.976C31.1309 25.451 29.3205 26.9601 26.6181 27.5035C26.3083 27.5926 26.1534 27.7376 26.1534 27.9376C26.1534 28.2376 26.5723 28.271 27.1755 29.6768C27.5779 30.6135 27.6063 33.2901 27.2626 37.706C26.3917 37.9076 25.7134 38.0426 25.2276 38.1126C24.3686 38.2351 23.4364 38.3043 22.5197 38.3301C21.6031 38.3568 21.2841 38.3543 20.0172 38.2468C19.1984 38.179 18.3856 38.0606 17.5844 37.8926Z" fill="white"/>
</svg>
