<svg width="63" height="63" viewBox="0 0 63 63" fill="none" xmlns="http://www.w3.org/2000/svg">
<rect width="63" height="63" rx="20" fill="#130327"/>
<path d="M33.5757 39.895L32.4917 40.979C32.0327 41.438 31.2905 41.438 30.8364 40.979L21.3442 31.4917C20.8853 31.0327 20.8853 30.2905 21.3442 29.8364L30.8364 20.3442C31.2954 19.8853 32.0376 19.8853 32.4917 20.3442L33.5757 21.4282C34.0396 21.8921 34.0298 22.6489 33.5562 23.103L27.6724 28.7085H41.7056C42.355 28.7085 42.8774 29.231 42.8774 29.8804V31.4429C42.8774 32.0923 42.355 32.6147 41.7056 32.6147H27.6724L33.5562 38.2202C34.0347 38.6743 34.0444 39.4312 33.5757 39.895Z" fill="white"/>
</svg>
