<svg width="43" height="41" viewBox="0 0 43 41" fill="none" xmlns="http://www.w3.org/2000/svg">
<path d="M30.0668 22.3576V28.4849H26.3939V22.7669C26.3939 21.3317 25.8626 20.3521 24.5326 20.3521C23.518 20.3521 22.913 21.0118 22.6474 21.6515C22.5514 21.8802 22.5257 22.1985 22.5257 22.5167V28.4849H18.8511C18.8511 28.4849 18.9008 18.8025 18.8511 17.7998H22.5257V19.313L22.5017 19.3478H22.5257V19.3146C23.0141 18.5854 23.8848 17.5479 25.8369 17.5479C28.2535 17.5479 30.0668 19.076 30.0668 22.3576ZM15.0068 12.647C13.7505 12.647 12.9279 13.4458 12.9279 14.4933C12.9279 15.5209 13.7265 16.3413 14.9588 16.3413H14.9828C16.2648 16.3413 17.0618 15.5192 17.0618 14.4933C17.0378 13.4458 16.2648 12.647 15.0068 12.647ZM13.1455 28.4849H16.8201V17.7998H13.1455V28.4849Z" fill="#130327"/>
<path d="M21.4974 33.7438C25.1338 33.7438 28.6213 32.3468 31.1926 29.8603C33.7639 27.3737 35.2085 24.0012 35.2085 20.4847C35.2085 16.9682 33.7639 13.5957 31.1926 11.1091C28.6213 8.62258 25.1338 7.22565 21.4974 7.22565C17.8609 7.22565 14.3734 8.62258 11.8021 11.1091C9.23075 13.5957 7.78619 16.9682 7.78619 20.4847C7.78619 24.0012 9.23075 27.3737 11.8021 29.8603C14.3734 32.3468 17.8609 33.7438 21.4974 33.7438ZM21.4974 37.0585C12.0315 37.0585 4.3584 29.6384 4.3584 20.4847C4.3584 11.331 12.0315 3.91089 21.4974 3.91089C30.9632 3.91089 38.6363 11.331 38.6363 20.4847C38.6363 29.6384 30.9632 37.0585 21.4974 37.0585Z" fill="#130327"/>
</svg>
