<svg width="25" height="20" viewBox="0 0 45 32" fill="none" xmlns="http://www.w3.org/2000/svg">
<path d="M30.2898 9.52911C28.4056 9.52447 26.5387 9.78657 24.7957 10.3004C23.0528 10.8143 21.4681 11.5698 20.1324 12.5237C18.7967 13.4777 17.7361 14.6113 17.0113 15.8598C16.2865 17.1083 15.9118 18.4471 15.9086 19.7997V30.1762C15.9086 30.5974 16.1417 31.0014 16.5566 31.2992C16.9715 31.5971 17.5343 31.7644 18.1211 31.7644H23.2836C23.8704 31.7644 24.4331 31.5971 24.848 31.2992C25.263 31.0014 25.4961 30.5974 25.4961 30.1762V19.7997C25.4956 19.3186 25.6363 18.8429 25.9091 18.4035C26.182 17.9641 26.5807 17.5709 27.0794 17.2496C27.5781 16.9282 28.1655 16.686 28.8034 16.5385C29.4413 16.391 30.1153 16.3417 30.7815 16.3938C31.9762 16.5018 33.0742 16.9209 33.8672 17.5714C34.6602 18.222 35.093 19.0588 35.0836 19.9232V30.1762C35.0836 30.5974 35.3167 31.0014 35.7316 31.2992C36.1465 31.5971 36.7093 31.7644 37.2961 31.7644H42.4586C43.0453 31.7644 43.6081 31.5971 44.023 31.2992C44.438 31.0014 44.6711 30.5974 44.6711 30.1762V19.7997C44.6678 18.4471 44.2931 17.1083 43.5683 15.8598C42.8436 14.6113 41.783 13.4777 40.4472 12.5237C39.1115 11.5698 37.5268 10.8143 35.7839 10.3004C34.041 9.78657 32.174 9.52447 30.2898 9.52911Z" fill="white"/>
<path d="M9.27224 11.1169H2.63474C1.41281 11.1169 0.422241 11.828 0.422241 12.7052V30.1758C0.422241 31.0529 1.41281 31.764 2.63474 31.764H9.27224C10.4942 31.764 11.4847 31.0529 11.4847 30.1758V12.7052C11.4847 11.828 10.4942 11.1169 9.27224 11.1169Z" fill="white"/>
<path d="M5.95349 7.94118C9.00832 7.94118 11.4847 6.16348 11.4847 3.97059C11.4847 1.77769 9.00832 0 5.95349 0C2.89867 0 0.422241 1.77769 0.422241 3.97059C0.422241 6.16348 2.89867 7.94118 5.95349 7.94118Z" fill="white"/>
</svg>
