<svg width="25" height="20" viewBox="0 0 56 55" fill="none" xmlns="http://www.w3.org/2000/svg">
<path d="M44.3334 9.01147H11.6667C9.81023 9.01147 8.02976 9.72354 6.717 10.991C5.40425 12.2585 4.66675 13.9776 4.66675 15.7701V38.2988C4.66675 40.0913 5.40425 41.8104 6.717 43.0779C8.02976 44.3454 9.81023 45.0575 11.6667 45.0575H44.3334C46.1899 45.0575 47.9704 44.3454 49.2832 43.0779C50.5959 41.8104 51.3334 40.0913 51.3334 38.2988V15.7701C51.3334 13.9776 50.5959 12.2585 49.2832 10.991C47.9704 9.72354 46.1899 9.01147 44.3334 9.01147ZM42.7701 13.5172L28.0001 24.2184L13.2301 13.5172H42.7701ZM44.3334 40.5517H11.6667C11.0479 40.5517 10.4544 40.3144 10.0168 39.8919C9.57925 39.4694 9.33342 38.8963 9.33342 38.2988V16.3333L26.6001 28.8368C27.004 29.1292 27.4952 29.2873 28.0001 29.2873C28.5049 29.2873 28.9962 29.1292 29.4001 28.8368L46.6668 16.3333V38.2988C46.6668 38.8963 46.4209 39.4694 45.9833 39.8919C45.5457 40.3144 44.9523 40.5517 44.3334 40.5517Z" fill="white"/>
</svg>
