<svg width="25" height="20" viewBox="0 0 42 41" fill="none" xmlns="http://www.w3.org/2000/svg">
<path d="M34.3092 30.4292H30.8814V15.9271L20.5981 22.1423L10.3147 15.9271V30.4292H6.8869V10.5406H8.94357L20.5981 17.5845L32.2525 10.5406H34.3092V30.4292ZM34.3092 7.22583H6.8869C4.98447 7.22583 3.45911 8.7009 3.45911 10.5406V30.4292C3.45911 31.3083 3.82025 32.1514 4.46308 32.7731C5.10592 33.3947 5.97779 33.7439 6.8869 33.7439H34.3092C35.2183 33.7439 36.0902 33.3947 36.733 32.7731C37.3759 32.1514 37.737 31.3083 37.737 30.4292V10.5406C37.737 9.66146 37.3759 8.81834 36.733 8.1967C36.0902 7.57506 35.2183 7.22583 34.3092 7.22583Z" fill="#130327"/>
</svg>
