<svg width="56" height="30" viewBox="0 0 56 30" fill="none" xmlns="http://www.w3.org/2000/svg">
<path d="M43.0339 29.9997C31.6252 29.9918 20.6879 27.5555 12.6207 23.2252C4.55345 18.8949 0.0147878 13.024 0 6.90007C0 5.0701 1.35429 3.31509 3.76493 2.02111C6.17558 0.727123 9.44512 0.00017144 12.8543 0.00017144C13.5762 -0.00278022 14.2969 0.0323885 15.006 0.10517C15.6915 0.15962 16.3654 0.250052 17.018 0.375166C17.4769 0.461609 17.8859 0.610863 18.2045 0.808168C18.5231 1.00547 18.7402 1.244 18.8343 1.50015L22.6627 10.5C22.7659 10.7443 22.7534 10.9986 22.6265 11.2396C22.4996 11.4807 22.2623 11.7008 21.9361 11.88C21.5728 12.09 21.5449 12.105 18.1078 13.065C20.8603 16.3062 25.6896 18.9091 31.7166 20.3999C33.5329 18.5399 33.5609 18.5249 33.9521 18.3299C34.2859 18.1548 34.696 18.0274 35.1451 17.9593C35.5941 17.8912 36.0678 17.8845 36.5229 17.9399L53.2894 19.9949C53.7513 20.0524 54.1784 20.1721 54.5304 20.3427C54.8824 20.5132 55.1477 20.7291 55.3014 20.9699C55.5372 21.3259 55.7149 21.6923 55.8323 22.0648C55.9448 22.4418 56.0009 22.823 56 23.2048C55.9485 25.027 54.5561 26.7642 52.1269 28.0372C49.6976 29.3103 46.4288 30.0158 43.0339 29.9997Z" fill="white"/>
</svg>
