<svg width="57" height="31" viewBox="0 0 57 31" fill="none" xmlns="http://www.w3.org/2000/svg">
<path d="M56.429 15.8887V14.9512C56.429 14.4332 55.8025 14.0137 55.029 14.0137H30.529V11.6699H36.829C38.3751 11.6699 39.629 10.8303 39.629 9.79492V2.29492C39.629 1.25957 38.3751 0.419922 36.829 0.419922H20.029C18.4828 0.419922 17.229 1.25957 17.229 2.29492V9.79492C17.229 10.8303 18.4828 11.6699 20.029 11.6699H26.329V14.0137H1.82896C1.05546 14.0137 0.428955 14.4332 0.428955 14.9512V15.8887C0.428955 16.4066 1.05546 16.8262 1.82896 16.8262H10.929V19.1699H6.02895C4.48283 19.1699 3.22896 20.0096 3.22896 21.0449V28.5449C3.22896 29.5803 4.48283 30.4199 6.02895 30.4199H20.029C21.5751 30.4199 22.829 29.5803 22.829 28.5449V21.0449C22.829 20.0096 21.5751 19.1699 20.029 19.1699H15.129V16.8262H41.729V19.1699H36.829C35.2828 19.1699 34.029 20.0096 34.029 21.0449V28.5449C34.029 29.5803 35.2828 30.4199 36.829 30.4199H50.829C52.3751 30.4199 53.629 29.5803 53.629 28.5449V21.0449C53.629 20.0096 52.3751 19.1699 50.829 19.1699H45.929V16.8262H55.029C55.8025 16.8262 56.429 16.4066 56.429 15.8887ZM22.829 7.91992V4.16992H34.029V7.91992H22.829ZM17.229 26.6699H8.82895V22.9199H17.229V26.6699ZM48.029 26.6699H39.629V22.9199H48.029V26.6699Z" fill="white"/>
</svg>
