<svg width="63" height="63" viewBox="0 0 63 63" fill="none" xmlns="http://www.w3.org/2000/svg">
<rect width="63" height="63" rx="20" fill="#E5E5E5"/>
<path d="M30.3018 22.4282L31.3857 21.3442C31.8447 20.8853 32.5869 20.8853 33.041 21.3442L42.5332 30.8315C42.9922 31.2905 42.9922 32.0327 42.5332 32.4868L33.041 41.979C32.582 42.438 31.8398 42.438 31.3857 41.979L30.3018 40.895C29.8379 40.4312 29.8477 39.6743 30.3213 39.2202L36.2051 33.6147H22.1719C21.5225 33.6147 21 33.0923 21 32.4429V30.8804C21 30.231 21.5225 29.7085 22.1719 29.7085H36.2051L30.3213 24.103C29.8428 23.6489 29.833 22.8921 30.3018 22.4282Z" fill="#130327"/>
</svg>
