<svg width="57" height="31" viewBox="0 0 57 31" fill="none" xmlns="http://www.w3.org/2000/svg">
<path d="M53.8696 14.8945L43.304 12.4706V5.20584C43.304 4.20148 42.2868 3.30426 40.7446 2.94939L29.8071 0.438511C28.9211 0.230945 27.9368 0.230945 27.0399 0.438511L16.1024 2.94939C14.5602 3.30426 13.543 4.20148 13.543 5.20584V12.4706L2.97739 14.8945C1.44614 15.2494 0.428955 16.1466 0.428955 17.1509V24.5229C0.428955 25.4335 1.27114 26.2704 2.60552 26.6789L13.543 30.0267C14.6477 30.3682 15.9602 30.3682 17.0649 30.0267L28.429 26.545L39.793 30.0267C40.8977 30.3682 42.2102 30.3682 43.3149 30.0267L54.2524 26.6789C55.5868 26.2704 56.429 25.4335 56.429 24.5229V17.1509C56.429 16.1466 55.4118 15.2494 53.8696 14.8945ZM39.5852 12.5242L30.2883 14.6601V10.0937L39.5852 7.61628V12.5242ZM17.2727 5.1121L28.429 2.55435L39.5852 5.1121V5.15227L28.429 7.92428L17.2727 5.15227V5.1121ZM26.4602 24.6032L17.1633 27.4489V22.1526L26.4602 19.5547V24.6032ZM26.4602 17.1041L15.304 19.8761L4.14771 17.1041V17.0639L15.304 14.5061L26.4602 17.0639V17.1041ZM52.7102 24.6032L43.4133 27.4489V22.1526L52.7102 19.5547V24.6032ZM52.7102 17.1041L41.554 19.8761L30.3977 17.1041V17.0639L41.554 14.5061L52.7102 17.0639V17.1041Z" fill="white"/>
</svg>
