<svg width="42" height="42" viewBox="0 0 42 42" fill="none" xmlns="http://www.w3.org/2000/svg" class="text-gray-50">
<path d="M28.4997 12.871C27.2716 5.30927 24.3751 0 21.0042 0C17.6334 0 14.7368 5.30927 13.5088 12.871H28.4997ZM12.8736 21C12.8736 22.8798 12.9752 24.6835 13.1531 26.4194H28.8469C29.0248 24.6835 29.1264 22.8798 29.1264 21C29.1264 19.1202 29.0248 17.3165 28.8469 15.5806H13.1531C12.9752 17.3165 12.8736 19.1202 12.8736 21ZM40.3739 12.871C37.9516 7.12137 33.0478 2.67581 26.9921 0.880645C29.0587 3.74274 30.4816 8.05282 31.2269 12.871H40.3739ZM15.0079 0.880645C8.96068 2.67581 4.0484 7.12137 1.6346 12.871H10.7816C11.5185 8.05282 12.9413 3.74274 15.0079 0.880645V0.880645ZM41.2801 15.5806H31.5656C31.7435 17.3589 31.8451 19.1794 31.8451 21C31.8451 22.8206 31.7435 24.6411 31.5656 26.4194H41.2716C41.7374 24.6835 42 22.8798 42 21C42 19.1202 41.7374 17.3165 41.2801 15.5806ZM10.1633 21C10.1633 19.1794 10.265 17.3589 10.4428 15.5806H0.728373C0.271022 17.3165 0 19.1202 0 21C0 22.8798 0.271022 24.6835 0.728373 26.4194H10.4344C10.265 24.6411 10.1633 22.8206 10.1633 21V21ZM13.5088 29.129C14.7368 36.6907 17.6334 42 21.0042 42C24.3751 42 27.2716 36.6907 28.4997 29.129H13.5088ZM27.0006 41.1194C33.0478 39.3242 37.9601 34.8786 40.3823 29.129H31.2353C30.49 33.9472 29.0672 38.2573 27.0006 41.1194ZM1.6346 29.129C4.05687 34.8786 8.96068 39.3242 15.0163 41.1194C12.9498 38.2573 11.5269 33.9472 10.7816 29.129H1.6346V29.129Z" fill="white"/>
</svg>
